<svg xmlns="http://www.w3.org/2000/svg" width="34" height="34" viewBox="0 0 34 34" fill="none">
  <g clip-path="url(#clip0_233_554)">
    <path d="M28.6353 12.7311L29.6364 13.4866L21.3064 24.4988L14.6009 14.5066L8.61312 23.2711L4.36312 19.4933L5.66645 17.9916L8.21645 20.2488L14.6009 10.9177L21.3915 21.0327L27.6814 12.7122C26.7285 12.6317 25.8019 12.3575 24.9586 11.9064C24.1153 11.4554 23.3729 10.8369 22.777 10.0888C22.181 9.34083 21.744 8.47902 21.4928 7.55622C21.2416 6.63342 21.1814 5.66905 21.3159 4.72217H3.77756C3.2766 4.72217 2.79615 4.92118 2.44191 5.27541C2.08768 5.62965 1.88867 6.11009 1.88867 6.61106V27.3888C1.88867 27.8898 2.08768 28.3702 2.44191 28.7245C2.79615 29.0787 3.2766 29.2777 3.77756 29.2777H30.222C30.723 29.2777 31.2034 29.0787 31.5577 28.7245C31.9119 28.3702 32.1109 27.8898 32.1109 27.3888V11.6544C31.0668 12.3118 29.8682 12.6831 28.6353 12.7311Z" fill="white"/>
    <path d="M28.3336 10.3889C30.9416 10.3889 33.0558 8.27469 33.0558 5.66668C33.0558 3.05867 30.9416 0.944458 28.3336 0.944458C25.7255 0.944458 23.6113 3.05867 23.6113 5.66668C23.6113 8.27469 25.7255 10.3889 28.3336 10.3889Z" fill="white"/>
  </g>
  <defs>
    <clipPath id="clip0_233_554">
      <rect width="34" height="34" fill="white"/>
    </clipPath>
  </defs>
</svg>