<svg width="26" height="26" viewBox="0 0 26 26" fill="none" xmlns="http://www.w3.org/2000/svg">
<path d="M22.7928 4.09247H3.71765C3.50686 4.09247 3.3047 4.17621 3.15564 4.32526C3.00659 4.47431 2.92285 4.67647 2.92285 4.88727V20.7832C2.92285 20.994 3.00659 21.1962 3.15564 21.3452C3.3047 21.4943 3.50686 21.578 3.71765 21.578H22.7928C23.0036 21.578 23.2057 21.4943 23.3548 21.3452C23.5039 21.1962 23.5876 20.994 23.5876 20.7832V4.88727C23.5876 4.67647 23.5039 4.47431 23.3548 4.32526C23.2057 4.17621 23.0036 4.09247 22.7928 4.09247ZM4.51245 6.47686C4.51245 6.26607 4.59618 6.06391 4.74524 5.91485C4.89429 5.7658 5.09645 5.68206 5.30724 5.68206H8.48643C8.69723 5.68206 8.89939 5.7658 9.04844 5.91485C9.1975 6.06391 9.28123 6.26607 9.28123 6.47686C9.28123 6.68765 9.1975 6.88981 9.04844 7.03887C8.89939 7.18792 8.69723 7.27166 8.48643 7.27166H6.10204V9.65605C6.10204 9.86685 6.0183 10.069 5.86925 10.2181C5.7202 10.3671 5.51804 10.4509 5.30724 10.4509C5.09645 10.4509 4.89429 10.3671 4.74524 10.2181C4.59618 10.069 4.51245 9.86685 4.51245 9.65605V6.47686ZM8.48643 19.9884H5.30724C5.09645 19.9884 4.89429 19.9047 4.74524 19.7556C4.59618 19.6066 4.51245 19.4044 4.51245 19.1936V16.0144C4.51245 15.8036 4.59618 15.6015 4.74524 15.4524C4.89429 15.3034 5.09645 15.2196 5.30724 15.2196C5.51804 15.2196 5.7202 15.3034 5.86925 15.4524C6.0183 15.6015 6.10204 15.8036 6.10204 16.0144V18.3988H8.48643C8.69723 18.3988 8.89939 18.4826 9.04844 18.6316C9.1975 18.7807 9.28123 18.9828 9.28123 19.1936C9.28123 19.4044 9.1975 19.6066 9.04844 19.7556C8.89939 19.9047 8.69723 19.9884 8.48643 19.9884ZM10.8708 15.2196C10.8708 15.4304 10.7871 15.6326 10.638 15.7816C10.489 15.9307 10.2868 16.0144 10.076 16.0144C9.86524 16.0144 9.66308 15.9307 9.51402 15.7816C9.36497 15.6326 9.28123 15.4304 9.28123 15.2196V10.4509C9.28123 10.2401 9.36497 10.0379 9.51402 9.88884C9.66308 9.73979 9.86524 9.65605 10.076 9.65605C10.2868 9.65605 10.489 9.73979 10.638 9.88884C10.7871 10.0379 10.8708 10.2401 10.8708 10.4509V15.2196ZM14.05 15.2196C14.05 15.4304 13.9663 15.6326 13.8172 15.7816C13.6682 15.9307 13.466 16.0144 13.2552 16.0144C13.0444 16.0144 12.8423 15.9307 12.6932 15.7816C12.5442 15.6326 12.4604 15.4304 12.4604 15.2196V10.4509C12.4604 10.2401 12.5442 10.0379 12.6932 9.88884C12.8423 9.73979 13.0444 9.65605 13.2552 9.65605C13.466 9.65605 13.6682 9.73979 13.8172 9.88884C13.9663 10.0379 14.05 10.2401 14.05 10.4509V15.2196ZM16.4344 16.0144C16.2236 16.0144 16.0215 15.9307 15.8724 15.7816C15.7234 15.6326 15.6396 15.4304 15.6396 15.2196V10.4509C15.6396 10.2401 15.7234 10.0379 15.8724 9.88884C16.0215 9.73979 16.2236 9.65605 16.4344 9.65605C16.6452 9.65605 16.8474 9.73979 16.9964 9.88884C17.1455 10.0379 17.2292 10.2401 17.2292 10.4509V15.2196C17.2292 15.4304 17.1455 15.6326 16.9964 15.7816C16.8474 15.9307 16.6452 16.0144 16.4344 16.0144ZM21.998 19.1936C21.998 19.4044 21.9143 19.6066 21.7652 19.7556C21.6162 19.9047 21.414 19.9884 21.2032 19.9884H18.024C17.8132 19.9884 17.6111 19.9047 17.462 19.7556C17.3129 19.6066 17.2292 19.4044 17.2292 19.1936C17.2292 18.9828 17.3129 18.7807 17.462 18.6316C17.6111 18.4826 17.8132 18.3988 18.024 18.3988H20.4084V16.0144C20.4084 15.8036 20.4921 15.6015 20.6412 15.4524C20.7902 15.3034 20.9924 15.2196 21.2032 15.2196C21.414 15.2196 21.6162 15.3034 21.7652 15.4524C21.9143 15.6015 21.998 15.8036 21.998 16.0144V19.1936ZM21.998 9.65605C21.998 9.86685 21.9143 10.069 21.7652 10.2181C21.6162 10.3671 21.414 10.4509 21.2032 10.4509C20.9924 10.4509 20.7902 10.3671 20.6412 10.2181C20.4921 10.069 20.4084 9.86685 20.4084 9.65605V7.27166H18.024C17.8132 7.27166 17.6111 7.18792 17.462 7.03887C17.3129 6.88981 17.2292 6.68765 17.2292 6.47686C17.2292 6.26607 17.3129 6.06391 17.462 5.91485C17.6111 5.7658 17.8132 5.68206 18.024 5.68206H21.2032C21.414 5.68206 21.6162 5.7658 21.7652 5.91485C21.9143 6.06391 21.998 6.26607 21.998 6.47686V9.65605Z" fill="#8ED893"/>
</svg>
