<svg xmlns="http://www.w3.org/2000/svg" width="34" height="35" viewBox="0 0 34 35" fill="none">
  <g clip-path="url(#clip0_233_588)">
    <path d="M11.05 24.6823H23.8C25.2167 24.6823 26.4237 24.1893 27.421 23.2033C28.4183 22.2173 28.9113 21.0103 28.9 19.5823C28.9 18.1657 28.407 16.9643 27.421 15.9783C26.435 14.9923 25.228 14.4937 23.8 14.4823C23.5733 12.839 22.8253 11.4393 21.556 10.2833C20.2753 9.11599 18.8417 8.53232 17.255 8.53232C15.8157 8.53232 14.5067 8.90066 13.328 9.63732C12.1493 10.374 11.2767 11.4223 10.71 12.7823C9.10067 12.9297 7.76333 13.5473 6.698 14.6353C5.63267 15.7233 5.1 17.089 5.1 18.7323C5.1 20.3757 5.68367 21.7923 6.851 22.9823C8.007 24.1157 9.40667 24.6823 11.05 24.6823ZM17 34.8823C14.654 34.8823 12.444 34.4347 10.37 33.5393C8.30733 32.6553 6.511 31.4483 4.981 29.9183C3.451 28.3883 2.23833 26.5863 1.343 24.5123C0.447667 22.4497 0 20.2397 0 17.8823C0 15.525 0.447667 13.315 1.343 11.2523C2.23833 9.18966 3.451 7.39332 4.981 5.86332C6.511 4.33332 8.30733 3.12066 10.37 2.22532C12.444 1.32999 14.654 0.882324 17 0.882324C19.346 0.882324 21.556 1.32999 23.63 2.22532C25.704 3.12066 27.506 4.33332 29.036 5.86332C30.566 7.39332 31.773 9.18966 32.657 11.2523C33.5523 13.3263 34 15.5363 34 17.8823C34 20.2283 33.5523 22.4383 32.657 24.5123C31.773 26.5863 30.566 28.3883 29.036 29.9183C27.506 31.4483 25.704 32.6553 23.63 33.5393C21.5673 34.4347 19.3573 34.8823 17 34.8823Z" fill="white"/>
  </g>
  <defs>
    <clipPath id="clip0_233_588">
      <rect width="34" height="34" fill="white" transform="translate(0 0.882324)"/>
    </clipPath>
  </defs>
</svg>