<svg xmlns="http://www.w3.org/2000/svg" width="36" height="31" viewBox="0 0 36 31" fill="none">
  <path d="M30.375 4.79785H5.625C5.02826 4.79785 4.45597 5.00004 4.03401 5.35995C3.61205 5.71985 3.375 6.20799 3.375 6.71697V23.989C3.375 24.498 3.61205 24.9861 4.03401 25.346C4.45597 25.706 5.02826 25.9081 5.625 25.9081H30.375C30.9717 25.9081 31.544 25.706 31.966 25.346C32.3879 24.9861 32.625 24.498 32.625 23.989V6.71697C32.625 6.20799 32.3879 5.71985 31.966 5.35995C31.544 5.00004 30.9717 4.79785 30.375 4.79785ZM13.05 17.464C13.2887 17.6167 13.4465 17.844 13.4887 18.096C13.5309 18.3479 13.454 18.6038 13.275 18.8074C13.096 19.011 12.8295 19.1456 12.5341 19.1816C12.2387 19.2176 11.9387 19.152 11.7 18.9993L7.2 16.1206C7.06028 16.0313 6.94688 15.9154 6.86877 15.7821C6.79066 15.6489 6.75 15.502 6.75 15.353C6.75 15.204 6.79066 15.0571 6.86877 14.9239C6.94688 14.7906 7.06028 14.6747 7.2 14.5854L11.7 11.7067C11.9387 11.554 12.2387 11.4884 12.5341 11.5244C12.8295 11.5604 13.096 11.695 13.275 11.8986C13.454 12.1022 13.5309 12.3581 13.4887 12.61C13.4465 12.862 13.2887 13.0893 13.05 13.242L9.74953 15.353L13.05 17.464ZM21.3314 8.89997L16.8314 22.3338C16.7931 22.4571 16.7263 22.5726 16.6349 22.6737C16.5436 22.7747 16.4296 22.8592 16.2995 22.9222C16.1694 22.9852 16.026 23.0254 15.8775 23.0405C15.7289 23.0557 15.5784 23.0454 15.4346 23.0103C15.2908 22.9752 15.1566 22.916 15.04 22.8362C14.9233 22.7563 14.8265 22.6575 14.7552 22.5453C14.6839 22.4332 14.6395 22.3101 14.6246 22.1831C14.6097 22.0562 14.6247 21.928 14.6686 21.806L19.1686 8.37221C19.2551 8.132 19.4486 7.93032 19.7075 7.81049C19.9665 7.69066 20.2702 7.66225 20.5535 7.73137C20.8367 7.80048 21.0768 7.9616 21.2223 8.18011C21.3678 8.39863 21.4069 8.65709 21.3314 8.89997ZM28.8 16.1206L24.3 18.9993C24.0613 19.152 23.7613 19.2176 23.4659 19.1816C23.1705 19.1456 22.904 19.011 22.725 18.8074C22.546 18.6038 22.4691 18.3479 22.5113 18.096C22.5535 17.844 22.7113 17.6167 22.95 17.464L26.2505 15.353L22.95 13.242C22.8318 13.1664 22.7322 13.0716 22.657 12.9632C22.5817 12.8548 22.5322 12.7348 22.5113 12.61C22.4904 12.4853 22.4985 12.3582 22.5352 12.2362C22.5719 12.1141 22.6364 11.9994 22.725 11.8986C22.8136 11.7978 22.9247 11.7128 23.0518 11.6486C23.1789 11.5844 23.3196 11.5422 23.4659 11.5244C23.6122 11.5066 23.7611 11.5135 23.9042 11.5448C24.0473 11.5761 24.1818 11.6311 24.3 11.7067L28.8 14.5854C28.9397 14.6747 29.0531 14.7906 29.1312 14.9239C29.2093 15.0571 29.25 15.204 29.25 15.353C29.25 15.502 29.2093 15.6489 29.1312 15.7821C29.0531 15.9154 28.9397 16.0313 28.8 16.1206Z" fill="white"/>
</svg>