<svg xmlns="http://www.w3.org/2000/svg" width="24" height="24" viewBox="0 0 24 24" fill="none">
  <g clip-path="url(#clip0_233_598)">
    <path fill-rule="evenodd" clip-rule="evenodd" d="M1.84629 0H8.30914C9.32743 0 10.1537 0.826286 10.1537 1.84629V8.30914C10.1537 9.32743 9.32743 10.1537 8.30743 10.1537H1.84457C1.3552 10.1533 0.886033 9.95854 0.540158 9.61234C0.194283 9.26615 -2.10948e-07 8.7968 0 8.30743L0 1.84457C0 0.828 0.826286 0 1.84629 0ZM15.6926 13.8463H22.1554C23.1737 13.8463 24 14.6726 24 15.6926V22.1554C24 23.1737 23.1737 24 22.1537 24H15.6909C15.2015 23.9995 14.7323 23.8048 14.3864 23.4586C14.0406 23.1124 13.8463 22.6431 13.8463 22.1537V15.6909C13.8463 14.6726 14.6726 13.8463 15.6926 13.8463ZM8.30743 13.8463H1.84457C0.828 13.8463 0 14.6726 0 15.6926V22.1554C0 23.172 0.826286 24 1.84629 24H8.30914C9.32743 24 10.1537 23.1737 10.1537 22.1537V15.6909C10.1537 14.6726 9.32743 13.8463 8.30743 13.8463ZM18.4474 0C18.7884 0 19.1154 0.135459 19.3566 0.376577C19.5977 0.617695 19.7331 0.944722 19.7331 1.28571V4.25657H22.7023C22.8711 4.25657 23.0383 4.28983 23.1943 4.35444C23.3503 4.41905 23.492 4.51376 23.6114 4.63315C23.7308 4.75254 23.8255 4.89427 23.8901 5.05026C23.9547 5.20625 23.988 5.37344 23.988 5.54229C23.988 5.71113 23.9547 5.87832 23.8901 6.03431C23.8255 6.1903 23.7308 6.33203 23.6114 6.45142C23.492 6.57081 23.3503 6.66552 23.1943 6.73013C23.0383 6.79474 22.8711 6.828 22.7023 6.828H19.7331V9.79714C19.7331 10.1381 19.5977 10.4652 19.3566 10.7063C19.1154 10.9474 18.7884 11.0829 18.4474 11.0829C18.1064 11.0829 17.7794 10.9474 17.5383 10.7063C17.2972 10.4652 17.1617 10.1381 17.1617 9.79714V6.828H14.1909C13.8499 6.828 13.5228 6.69254 13.2817 6.45142C13.0406 6.2103 12.9051 5.88328 12.9051 5.54229C12.9051 5.20129 13.0406 4.87427 13.2817 4.63315C13.5228 4.39203 13.8499 4.25657 14.1909 4.25657H17.1617V1.28571C17.1617 0.944722 17.2972 0.617695 17.5383 0.376577C17.7794 0.135459 18.1064 0 18.4474 0Z" fill="white"/>
    <path d="M19.3567 0.376577C19.1156 0.135459 18.7886 0 18.4476 0C18.1066 0 17.7795 0.135459 17.5384 0.376577C17.2973 0.617695 17.1618 0.944722 17.1618 1.28571V4.25657H14.191C13.85 4.25657 13.523 4.39203 13.2818 4.63315C13.0407 4.87427 12.9053 5.20129 12.9053 5.54229C12.9053 5.88328 13.0407 6.2103 13.2818 6.45142C13.523 6.69254 13.85 6.828 14.191 6.828H17.1618V9.79714C17.1618 10.1381 17.2973 10.4652 17.5384 10.7063C17.7795 10.9474 18.1066 11.0829 18.4476 11.0829C18.7886 11.0829 19.1156 10.9474 19.3567 10.7063C19.5978 10.4652 19.7333 10.1381 19.7333 9.79714V6.828H22.7024C22.8713 6.828 23.0384 6.79474 23.1944 6.73013C23.3504 6.66552 23.4922 6.57081 23.6116 6.45142C23.7309 6.33203 23.8256 6.1903 23.8903 6.03431C23.9549 5.87832 23.9881 5.71113 23.9881 5.54229C23.9881 5.37344 23.9549 5.20625 23.8903 5.05026C23.8256 4.89427 23.7309 4.75254 23.6116 4.63315C23.4922 4.51376 23.3504 4.41905 23.1944 4.35444C23.0384 4.28983 22.8713 4.25657 22.7024 4.25657H19.7333V1.28571C19.7333 0.944722 19.5978 0.617695 19.3567 0.376577Z" fill="white"/>
  </g>
  <defs>
    <clipPath id="clip0_233_598">
      <rect width="24" height="24" fill="white"/>
    </clipPath>
  </defs>
</svg>