<svg width="26" height="26" viewBox="0 0 26 26" fill="none" xmlns="http://www.w3.org/2000/svg">
<path d="M8.80438 14.1069C8.63575 14.1069 8.47402 14.1739 8.35478 14.2932C8.23553 14.4124 8.16854 14.5741 8.16854 14.7428V17.2861C8.16854 17.4547 8.23553 17.6165 8.35478 17.7357C8.47402 17.855 8.63575 17.922 8.80438 17.922C8.97302 17.922 9.13475 17.855 9.25399 17.7357C9.37323 17.6165 9.44022 17.4547 9.44022 17.2861V17.075H9.86496C10.2586 17.075 10.636 16.9187 10.9143 16.6403C11.1927 16.362 11.349 15.9846 11.349 15.591C11.349 15.1974 11.1927 14.8199 10.9143 14.5416C10.636 14.2633 10.2586 14.1069 9.86496 14.1069H8.80438ZM9.86496 15.8033H9.44022V15.3786H9.86496C9.92128 15.3786 9.9753 15.401 10.0151 15.4408C10.055 15.4806 10.0773 15.5346 10.0773 15.591C10.0773 15.6473 10.055 15.7013 10.0151 15.7411C9.9753 15.781 9.92128 15.8033 9.86496 15.8033ZM15.7986 14.7415C15.7989 14.5731 15.8661 14.4117 15.9853 14.2927C16.1045 14.1737 16.266 14.1069 16.4344 14.1069H17.7048C17.8735 14.1069 18.0352 14.1739 18.1545 14.2932C18.2737 14.4124 18.3407 14.5741 18.3407 14.7428C18.3407 14.9114 18.2737 15.0731 18.1545 15.1924C18.0352 15.3116 17.8735 15.3786 17.7048 15.3786H17.0703V15.8046H17.7061C17.8748 15.8046 18.0365 15.8716 18.1557 15.9908C18.275 16.1101 18.342 16.2718 18.342 16.4404C18.342 16.6091 18.275 16.7708 18.1557 16.8901C18.0365 17.0093 17.8748 17.0763 17.7061 17.0763H17.0703L17.0716 17.2848C17.0717 17.3683 17.0554 17.4511 17.0236 17.5283C16.9918 17.6055 16.9451 17.6757 16.8862 17.7348C16.7672 17.8543 16.6056 17.9216 16.437 17.922C16.2683 17.9223 16.1065 17.8556 15.987 17.7366C15.8675 17.6176 15.8002 17.456 15.7999 17.2874L15.7986 16.4392V14.7415ZM12.6194 14.1069C12.4508 14.1069 12.289 14.1739 12.1698 14.2932C12.0506 14.4124 11.9836 14.5741 11.9836 14.7428V17.2861C11.9836 17.4547 12.0506 17.6165 12.1698 17.7357C12.289 17.855 12.4508 17.922 12.6194 17.922H13.2578C13.7637 17.922 14.2489 17.721 14.6066 17.3633C14.9643 17.0055 15.1653 16.5203 15.1653 16.0144C15.1653 15.5085 14.9643 15.0233 14.6066 14.6656C14.2489 14.3079 13.7637 14.1069 13.2578 14.1069H12.6194ZM13.2552 16.6503V15.3786H13.2578C13.4264 15.3786 13.5882 15.4456 13.7074 15.5648C13.8266 15.6841 13.8936 15.8458 13.8936 16.0144C13.8936 16.1831 13.8266 16.3448 13.7074 16.464C13.5882 16.5833 13.4264 16.6503 13.2578 16.6503H13.2552ZM13.2578 8.38438V2.66183H7.53271C7.0268 2.66183 6.54162 2.8628 6.18389 3.22053C5.82616 3.57826 5.62519 4.06344 5.62519 4.56935V11.6678C5.25333 11.7993 4.93137 12.0428 4.70363 12.3649C4.47589 12.6869 4.35357 13.0716 4.35352 13.466V18.5565C4.35357 18.9509 4.47589 19.3356 4.70363 19.6577C4.93137 19.9797 5.25333 20.2232 5.62519 20.3547V21.1011C5.62519 21.607 5.82616 22.0922 6.18389 22.45C6.54162 22.8077 7.0268 23.0087 7.53271 23.0087H18.9778C19.4837 23.0087 19.9689 22.8077 20.3266 22.45C20.6843 22.0922 20.8853 21.607 20.8853 21.1011V20.3547C21.2567 20.2228 21.5781 19.9791 21.8054 19.6571C22.0326 19.3351 22.1546 18.9506 22.1544 18.5565V13.466C22.1546 13.0719 22.0326 12.6874 21.8054 12.3654C21.5781 12.0434 21.2567 11.7997 20.8853 11.6678V10.2919H15.1628C14.6569 10.2919 14.1717 10.0909 13.8139 9.73319C13.4562 9.37547 13.2552 8.89028 13.2552 8.38438M6.26357 12.8302H20.2482C20.4168 12.8302 20.5786 12.8971 20.6978 13.0164C20.817 13.1356 20.884 13.2974 20.884 13.466V18.5565C20.884 18.7252 20.817 18.8869 20.6978 19.0061C20.5786 19.1254 20.4168 19.1924 20.2482 19.1924H6.26357C6.09494 19.1924 5.93321 19.1254 5.81397 19.0061C5.69473 18.8869 5.62774 18.7252 5.62774 18.5565V13.466C5.62774 13.2974 5.69473 13.1356 5.81397 13.0164C5.93321 12.8971 6.09494 12.8302 6.26357 12.8302ZM14.5269 8.38438V2.97975L20.5674 9.02022H15.1628C14.9941 9.02022 14.8324 8.95323 14.7132 8.83398C14.5939 8.71474 14.5269 8.55301 14.5269 8.38438Z" fill="#BB48F1"/>
</svg>
