<svg width="41" height="42" viewBox="0 0 41 42" fill="none" xmlns="http://www.w3.org/2000/svg">
<path fill-rule="evenodd" clip-rule="evenodd" d="M32.2056 37.1406H10.2885C8.72348 37.1406 7.2226 36.5189 6.11599 35.4123C5.00938 34.3057 4.3877 32.8048 4.3877 31.2398V9.22656C4.3877 7.42767 6.16804 6.28629 7.73428 6.82916C7.9585 6.90672 8.17768 7.01967 8.38673 7.16972L8.68177 7.38046C9.3994 7.88966 10.2579 8.16249 11.1378 8.16098C12.0178 8.15947 12.8753 7.88369 13.5912 7.37203C14.5961 6.65689 15.7988 6.2726 17.0322 6.2726C18.2656 6.2726 19.4683 6.65689 20.4732 7.37203C21.1891 7.88369 22.0466 8.15947 22.9266 8.16098C23.8065 8.16249 24.665 7.88966 25.3826 7.38046L25.6777 7.16972C27.3518 5.97271 29.6767 7.16972 29.6767 9.22656V21.9672H35.5775C35.9128 21.9672 36.2345 22.1004 36.4716 22.3375C36.7087 22.5746 36.8419 22.8963 36.8419 23.2316V32.5043C36.8419 33.7339 36.3535 34.9132 35.484 35.7826C34.6145 36.6521 33.4352 37.1406 32.2056 37.1406ZM30.0982 24.4961V32.5043C30.0982 33.0632 30.3202 33.5992 30.7154 33.9944C31.1107 34.3896 31.6467 34.6117 32.2056 34.6117C32.7645 34.6117 33.3006 34.3896 33.6958 33.9944C34.091 33.5992 34.313 33.0632 34.313 32.5043V24.4961H30.0982ZM22.933 17.3309C22.933 16.9955 22.7998 16.6739 22.5626 16.4367C22.3255 16.1996 22.0039 16.0664 21.6685 16.0664H11.5529C11.2176 16.0664 10.8959 16.1996 10.6588 16.4367C10.4217 16.6739 10.2885 16.9955 10.2885 17.3309C10.2885 17.6662 10.4217 17.9878 10.6588 18.225C10.8959 18.4621 11.2176 18.5953 11.5529 18.5953H21.6685C22.0039 18.5953 22.3255 18.4621 22.5626 18.225C22.7998 17.9878 22.933 17.6662 22.933 17.3309ZM21.247 22.3887C21.247 22.0533 21.1138 21.7317 20.8767 21.4946C20.6396 21.2574 20.3179 21.1242 19.9826 21.1242H11.5529C11.2176 21.1242 10.8959 21.2574 10.6588 21.4946C10.4217 21.7317 10.2885 22.0533 10.2885 22.3887C10.2885 22.724 10.4217 23.0456 10.6588 23.2828C10.8959 23.5199 11.2176 23.6531 11.5529 23.6531H19.9826C20.3179 23.6531 20.6396 23.5199 20.8767 23.2828C21.1138 23.0456 21.247 22.724 21.247 22.3887ZM21.6685 26.182C22.0039 26.182 22.3255 26.3152 22.5626 26.5524C22.7998 26.7895 22.933 27.1111 22.933 27.4465C22.933 27.7818 22.7998 28.1034 22.5626 28.3406C22.3255 28.5777 22.0039 28.7109 21.6685 28.7109H11.5529C11.2176 28.7109 10.8959 28.5777 10.6588 28.3406C10.4217 28.1034 10.2885 27.7818 10.2885 27.4465C10.2885 27.1111 10.4217 26.7895 10.6588 26.5524C10.8959 26.3152 11.2176 26.182 11.5529 26.182H21.6685Z" fill="#FFC397"/>
</svg>
