<svg width="51" height="50" viewBox="0 0 51 50" fill="none" xmlns="http://www.w3.org/2000/svg">
<path d="M20.4675 10.45C19.7198 12.3233 19.1596 14.2662 18.795 16.25H32.205C31.8397 14.2661 31.2786 12.3232 30.53 10.45C29.7775 8.6175 28.91 7.215 28.01 6.2925C27.115 5.3725 26.2675 5 25.5 5C24.7325 5 23.885 5.3725 22.99 6.2925C22.09 7.2175 21.2225 8.6175 20.4675 10.45ZM20.2275 5.7025C19.4425 6.7675 18.7525 8.055 18.1575 9.4975C17.3575 11.4475 16.7075 13.7325 16.2525 16.25H7.51001C8.75876 13.6893 10.5389 11.4241 12.7318 9.60538C14.9247 7.78665 17.48 6.45614 20.2275 5.7025ZM30.775 5.7025C31.5575 6.7675 32.25 8.055 32.8425 9.4975C33.6425 11.4475 34.2925 13.7325 34.7475 16.25H43.49C42.2413 13.6893 40.4611 11.4241 38.2682 9.60538C36.0753 7.78665 33.5225 6.45614 30.775 5.7025ZM44.505 18.75H35.125C35.22 19.525 35.3 20.32 35.36 21.13C36.1378 20.4663 37.1371 20.1202 38.1588 20.1605C39.1805 20.2008 40.1494 20.6246 40.8725 21.3475C41.9325 22.43 43.58 23.805 45.495 24.52C45.4505 22.5585 45.1169 20.6142 44.505 18.75ZM32.605 18.75C32.79 20.165 32.9125 21.65 32.9675 23.19C31.7925 24.015 30.3925 24.725 28.8975 24.935C27.1975 25.175 25.4975 26.6075 25.5 28.75V31.25H18.395C18.1291 29.1773 17.9972 27.0897 18 25C18 22.8125 18.14 20.7125 18.395 18.75H32.605ZM18.795 33.75H25.5V35C25.5 38.56 26.635 41.3675 28.185 43.5225C28.1279 43.5853 28.0695 43.647 28.01 43.7075C27.115 44.6275 26.2675 45 25.5 45C24.7325 45 23.885 44.6275 22.99 43.7075C22.09 42.7825 21.2225 41.3825 20.4675 39.55C19.7198 37.6767 19.1595 35.7338 18.795 33.75ZM20.2275 44.2975C17.48 43.5439 14.9247 42.2133 12.7318 40.3946C10.5389 38.5759 8.75876 36.3107 7.51001 33.75H16.2525C16.7075 36.2675 17.355 38.555 18.1575 40.5C18.75 41.945 19.4425 43.2325 20.2275 44.2975ZM6.49501 31.25H15.875C15.6229 29.1762 15.4977 27.089 15.5 25C15.5 22.835 15.63 20.7375 15.875 18.75H6.49501C5.83345 20.7673 5.49757 22.877 5.50001 25C5.50001 27.1825 5.85001 29.2825 6.49501 31.25ZM46.7525 27.4125C43.3275 26.93 40.5375 24.5775 39.0875 23.0975C38.7963 22.8144 38.4062 22.656 38 22.656C37.5939 22.656 37.2037 22.8144 36.9125 23.0975C35.4625 24.5775 32.675 26.93 29.2475 27.4125C28.5625 27.5075 28 28.06 28 28.75V35C28 43.67 35.955 46.8175 37.675 47.3975C37.8856 47.4699 38.1144 47.4699 38.325 47.3975C40.045 46.8175 48 43.6725 48 35V28.75C48 28.06 47.4375 27.5075 46.7525 27.4125Z" fill="#56B9BC"/>
</svg>
