<svg width="36" height="34" viewBox="0 0 36 34" fill="none" xmlns="http://www.w3.org/2000/svg">
<path d="M13.248 2.48157C14.0576 2.49039 14.8638 2.58414 15.6547 2.76061C15.8229 2.79817 15.9752 2.88734 16.0903 3.01568C16.2054 3.14401 16.2775 3.3051 16.2966 3.47642L16.4841 5.16061C16.5105 5.39806 16.5924 5.62597 16.723 5.82602C16.8536 6.02607 17.0294 6.19267 17.2361 6.3124C17.4429 6.43214 17.6748 6.50167 17.9134 6.51541C18.1519 6.52915 18.3903 6.4867 18.6094 6.39149L20.1535 5.71318C20.3104 5.64409 20.4849 5.62544 20.6529 5.65982C20.8208 5.6942 20.9739 5.77991 21.091 5.9051C22.2075 7.09739 23.039 8.52737 23.523 10.0874C23.5736 10.2515 23.5719 10.4272 23.5182 10.5903C23.4644 10.7533 23.3613 10.8956 23.223 10.9974L21.8543 12.0077C21.6614 12.149 21.5046 12.3338 21.3965 12.5471C21.2884 12.7604 21.2321 12.9961 21.2321 13.2352C21.2321 13.4744 21.2884 13.7101 21.3965 13.9234C21.5046 14.1366 21.6614 14.3215 21.8543 14.4628L23.2252 15.472C23.3637 15.5739 23.467 15.7163 23.5208 15.8796C23.5745 16.0429 23.5761 16.2188 23.5252 16.383C23.0414 17.9429 22.2103 19.3729 21.0944 20.5654C20.9775 20.6905 20.8246 20.7763 20.6569 20.8109C20.4891 20.8455 20.3148 20.8271 20.158 20.7584L18.6072 20.0779C18.3884 19.9819 18.15 19.9389 17.9115 19.9521C17.6729 19.9654 17.4408 20.0347 17.234 20.1543C17.0271 20.2739 16.8513 20.4406 16.7209 20.6408C16.5904 20.8409 16.5089 21.069 16.483 21.3066L16.2955 22.9897C16.2767 23.159 16.2062 23.3184 16.0935 23.4461C15.9808 23.5738 15.8314 23.6636 15.6657 23.7033C14.0681 24.0833 12.4037 24.0833 10.8061 23.7033C10.6402 23.6638 10.4906 23.5741 10.3777 23.4464C10.2647 23.3186 10.194 23.1591 10.1752 22.9897L9.98884 21.3088C9.96177 21.072 9.87954 20.8448 9.74877 20.6456C9.618 20.4463 9.44233 20.2805 9.23586 20.1615C9.02939 20.0424 8.79788 19.9734 8.55992 19.9601C8.32196 19.9467 8.08418 19.9893 7.86568 20.0845L6.31495 20.7639C6.15795 20.8329 5.9834 20.8514 5.81544 20.8168C5.64749 20.7822 5.49443 20.6963 5.37745 20.5709C4.26135 19.377 3.43058 17.9455 2.94767 16.3841C2.89682 16.2199 2.89838 16.044 2.95215 15.8807C3.00591 15.7174 3.1092 15.575 3.24767 15.4731L4.61862 14.4628C4.81147 14.3215 4.9683 14.1366 5.0764 13.9234C5.1845 13.7101 5.24083 13.4744 5.24083 13.2352C5.24083 12.9961 5.1845 12.7604 5.0764 12.5471C4.9683 12.3338 4.81147 12.149 4.61862 12.0077L3.24767 10.9996C3.1092 10.8977 3.00591 10.7553 2.95215 10.592C2.89838 10.4287 2.89682 10.2528 2.94767 10.0886C3.43166 8.52848 4.26317 7.09849 5.37965 5.9062C5.49677 5.78101 5.64989 5.6953 5.81783 5.66092C5.98578 5.62654 6.16026 5.64519 6.31715 5.71429L7.86127 6.3926C8.08078 6.48775 8.31954 6.53009 8.55838 6.51622C8.79722 6.50235 9.02948 6.43266 9.2365 6.31274C9.44351 6.19282 9.61952 6.02602 9.75037 5.82573C9.88123 5.62544 9.96328 5.39726 9.98994 5.15951L10.1774 3.47642C10.1964 3.30475 10.2686 3.14331 10.3839 3.01474C10.4992 2.88618 10.6519 2.79692 10.8205 2.75951C11.6179 2.58327 12.4314 2.49013 13.248 2.48157ZM13.2348 9.92642C12.3572 9.92642 11.5156 10.275 10.8951 10.8956C10.2746 11.5161 9.92597 12.3577 9.92597 13.2352C9.92597 14.1128 10.2746 14.9544 10.8951 15.5749C11.5156 16.1955 12.3572 16.5441 13.2348 16.5441C14.1124 16.5441 14.954 16.1955 15.5745 15.5749C16.195 14.9544 16.5436 14.1128 16.5436 13.2352C16.5436 12.3577 16.195 11.5161 15.5745 10.8956C14.954 10.275 14.1124 9.92642 13.2348 9.92642Z" fill="white"/>
<path d="M27.5373 18.5294C28.0554 18.5351 28.5714 18.5951 29.0776 18.708C29.1852 18.732 29.2827 18.7891 29.3564 18.8712C29.43 18.9534 29.4762 19.0565 29.4884 19.1661L29.6084 20.244C29.6253 20.396 29.6777 20.5418 29.7613 20.6699C29.8449 20.7979 29.9574 20.9045 30.0897 20.9812C30.222 21.0578 30.3705 21.1023 30.5231 21.1111C30.6758 21.1199 30.8284 21.0927 30.9686 21.0318L31.9568 20.5977C32.0573 20.5534 32.1689 20.5415 32.2764 20.5635C32.3839 20.5855 32.4819 20.6404 32.5568 20.7205C33.2714 21.4835 33.8036 22.3987 34.1133 23.3972C34.1457 23.5022 34.1446 23.6146 34.1102 23.719C34.0758 23.8233 34.0098 23.9144 33.9213 23.9795L33.0453 24.6261C32.9219 24.7166 32.8215 24.8349 32.7523 24.9714C32.6832 25.1079 32.6471 25.2587 32.6471 25.4118C32.6471 25.5648 32.6832 25.7157 32.7523 25.8522C32.8215 25.9887 32.9219 26.1069 33.0453 26.1974L33.9227 26.8433C34.0113 26.9085 34.0775 26.9997 34.1119 27.1042C34.1463 27.2087 34.1473 27.3213 34.1147 27.4264C33.8051 28.4247 33.2732 29.3399 32.559 30.1031C32.4841 30.1832 32.3863 30.2381 32.279 30.2602C32.1716 30.2823 32.0601 30.2706 31.9597 30.2266L30.9672 29.7911C30.8271 29.7297 30.6746 29.7021 30.5219 29.7106C30.3692 29.7191 30.2207 29.7634 30.0883 29.84C29.9559 29.9165 29.8434 30.0232 29.7599 30.1513C29.6764 30.2794 29.6243 30.4254 29.6077 30.5774L29.4877 31.6546C29.4757 31.763 29.4305 31.865 29.3584 31.9467C29.2863 32.0285 29.1906 32.0859 29.0846 32.1113C28.0622 32.3546 26.9969 32.3546 25.9745 32.1113C25.8683 32.0861 25.7726 32.0286 25.7003 31.9469C25.628 31.8651 25.5828 31.7631 25.5707 31.6546L25.4514 30.5788C25.4341 30.4273 25.3815 30.2819 25.2978 30.1544C25.2141 30.0269 25.1017 29.9207 24.9695 29.8446C24.8374 29.7684 24.6892 29.7242 24.5369 29.7157C24.3846 29.7071 24.2325 29.7344 24.0926 29.7953L23.1001 30.2301C22.9997 30.2743 22.8879 30.2861 22.7805 30.264C22.673 30.2418 22.575 30.1868 22.5001 30.1066C21.7858 29.3425 21.2541 28.4263 20.9451 27.4271C20.9125 27.322 20.9135 27.2094 20.9479 27.1049C20.9824 27.0004 21.0485 26.9092 21.1371 26.844L22.0145 26.1974C22.1379 26.1069 22.2383 25.9887 22.3075 25.8522C22.3767 25.7157 22.4127 25.5648 22.4127 25.4118C22.4127 25.2587 22.3767 25.1079 22.3075 24.9714C22.2383 24.8349 22.1379 24.7166 22.0145 24.6261L21.1371 23.9809C21.0485 23.9158 20.9824 23.8246 20.9479 23.7201C20.9135 23.6156 20.9125 23.503 20.9451 23.3979C21.2548 22.3994 21.787 21.4843 22.5016 20.7212C22.5765 20.6411 22.6745 20.5862 22.782 20.5642C22.8895 20.5422 23.0011 20.5541 23.1016 20.5984L24.0898 21.0325C24.2303 21.0934 24.3831 21.1205 24.5359 21.1116C24.6888 21.1027 24.8374 21.0581 24.9699 20.9814C25.1024 20.9046 25.2151 20.7979 25.2988 20.6697C25.3826 20.5415 25.4351 20.3955 25.4521 20.2433L25.5721 19.1661C25.5843 19.0563 25.6304 18.9529 25.7043 18.8707C25.7781 18.7884 25.8758 18.7312 25.9837 18.7073C26.494 18.5945 27.0147 18.5349 27.5373 18.5294ZM27.5288 23.2941C26.9672 23.2941 26.4286 23.5172 26.0314 23.9144C25.6343 24.3115 25.4112 24.8501 25.4112 25.4118C25.4112 25.9734 25.6343 26.512 26.0314 26.9092C26.4286 27.3063 26.9672 27.5294 27.5288 27.5294C28.0905 27.5294 28.6291 27.3063 29.0262 26.9092C29.4234 26.512 29.6465 25.9734 29.6465 25.4118C29.6465 24.8501 29.4234 24.3115 29.0262 23.9144C28.6291 23.5172 28.0905 23.2941 27.5288 23.2941Z" fill="white"/>
</svg>
